<svg width="471" height="471" viewBox="0 0 471 471" fill="none" xmlns="http://www.w3.org/2000/svg">
<rect width="471" height="471" fill="#0C0D0C"/>
<circle cx="407.5" cy="46.5" r="6.5" fill="#2D8823"/>
<circle cx="72.5" cy="68.5" r="61.5" fill="#2D8823"/>
<circle cx="401.5" cy="266.5" r="21.5" fill="#2D8823"/>
<path fill-rule="evenodd" clip-rule="evenodd" d="M298.061 181.268C295.487 166.602 287.773 152.775 275.243 142.728C263.342 133.186 249.058 128.627 234.909 128.771C250.353 121.837 268.74 123.415 282.514 134.459C296.727 145.854 302.17 164.234 298.061 181.268Z" fill="#2D8823"/>
<path fill-rule="evenodd" clip-rule="evenodd" d="M324.639 254.43C333.88 241.425 340.377 226.333 343.285 210H349C351.761 210 354 207.761 354 205V157C354 154.239 351.761 152 349 152H338.108C322.478 109.955 281.987 80 234.5 80C187.013 80 146.522 109.955 130.892 152H119C116.239 152 114 154.239 114 157V205C114 207.761 116.239 210 119 210H125.715C128.607 226.24 135.046 241.253 144.203 254.208C127.47 258.421 114.927 273.177 114.049 291H108C105.239 291 103 293.239 103 296V340C103 342.761 105.239 345 108 345H114V392H354V378H362C364.761 378 367 375.761 367 373V317C367 314.239 364.761 312 362 312H354V293C354 274.593 341.566 259.089 324.639 254.43ZM315 173.5C315 210.779 278.735 241 234 241C189.265 241 153 210.779 153 173.5C153 136.221 189.265 106 234 106C278.735 106 315 136.221 315 173.5ZM168 307C165.239 307 163 309.239 163 312V318C163 320.761 165.239 323 168 323H198C200.761 323 203 320.761 203 318V312C203 309.239 200.761 307 198 307H168Z" fill="#2D8823"/>
<path d="M307 28L309.193 37.7066L317.607 32.3934L312.293 40.8074L322 43L312.293 45.1926L317.607 53.6066L309.193 48.2934L307 58L304.807 48.2934L296.393 53.6066L301.707 45.1926L292 43L301.707 40.8074L296.393 32.3934L304.807 37.7066L307 28Z" fill="#2D8823"/>
<path d="M60.5 208L62.181 215.442L68.6317 211.368L64.5582 217.819L72 219.5L64.5582 221.181L68.6317 227.632L62.181 223.558L60.5 231L58.819 223.558L52.3683 227.632L56.4418 221.181L49 219.5L56.4418 217.819L52.3683 211.368L58.819 215.442L60.5 208Z" fill="#2D8823"/>
</svg>
